<svg width="40" height="40" viewBox="0 0 40 40" fill="none" xmlns="http://www.w3.org/2000/svg">
<path d="M4 0C1.80312 0 0 1.80312 0 4V16.725C0 16.8688 0.00625 17.0031 0.025 17.15C0.040625 17.3031 0.06875 17.4531 0.1 17.6C0.18125 17.9813 0.309375 18.3438 0.475 18.675L0.5 18.7L2.35 22C3.05 23.2 4.36562 24 5.85 24H9.6V22.4H5.85C4.94062 22.4 4.17188 21.9125 3.75 21.2L3.525 20.8H36.475L36.25 21.2C35.8406 21.8844 34.9594 22.4 34.15 22.4H30.4V24H34.15C35.575 24 36.9344 23.2281 37.65 22L39.5 18.7L39.525 18.675C39.6906 18.3438 39.8188 17.9813 39.9 17.6C39.9313 17.4531 39.9594 17.3031 39.975 17.15C39.9938 17.0031 40 16.8688 40 16.725V4C40 1.80312 38.1969 0 36 0H4ZM30.4 4.8H32V7.4L34.25 6.1L35.05 7.5L32.8 8.8L35.05 10.1L34.25 11.5L32 10.2V12.8H30.4V10.2L28.15 11.5L27.35 10.1L29.6 8.8L27.35 7.5L28.175 6.1L30.4 7.4V4.8ZM1.8 17.6H38.2C38.1562 17.7188 38.1313 17.8375 38.075 17.95L37.375 19.2H2.625L1.925 17.95C1.86875 17.8375 1.84375 17.7188 1.8 17.6ZM12.8 22.4C11.9156 22.4 11.2 23.1156 11.2 24C11.2 24.8844 11.9156 25.6 12.8 25.6C13.6844 25.6 14.4 24.8844 14.4 24C14.4 23.1156 13.6844 22.4 12.8 22.4ZM20 22.4C19.1156 22.4 18.4 23.1156 18.4 24C18.4 24.8844 19.1156 25.6 20 25.6C20.8844 25.6 21.6 24.8844 21.6 24C21.6 23.1156 20.8844 22.4 20 22.4ZM27.2 22.4C26.3156 22.4 25.6 23.1156 25.6 24C25.6 24.8844 26.3156 25.6 27.2 25.6C28.0844 25.6 28.8 24.8844 28.8 24C28.8 23.1156 28.0844 22.4 27.2 22.4ZM12 27.2C11.1156 27.2 10.4 27.9156 10.4 28.8C10.4 29.6844 11.1156 30.4 12 30.4C12.8844 30.4 13.6 29.6844 13.6 28.8C13.6 27.9156 12.8844 27.2 12 27.2ZM20 27.2C19.1156 27.2 18.4 27.9156 18.4 28.8C18.4 29.6844 19.1156 30.4 20 30.4C20.8844 30.4 21.6 29.6844 21.6 28.8C21.6 27.9156 20.8844 27.2 20 27.2ZM28 27.2C27.1156 27.2 26.4 27.9156 26.4 28.8C26.4 29.6844 27.1156 30.4 28 30.4C28.8844 30.4 29.6 29.6844 29.6 28.8C29.6 27.9156 28.8844 27.2 28 27.2ZM10.4 32C9.51562 32 8.8 32.7156 8.8 33.6C8.8 34.4844 9.51562 35.2 10.4 35.2C11.2844 35.2 12 34.4844 12 33.6C12 32.7156 11.2844 32 10.4 32ZM20 32C19.1156 32 18.4 32.7156 18.4 33.6C18.4 34.4844 19.1156 35.2 20 35.2C20.8844 35.2 21.6 34.4844 21.6 33.6C21.6 32.7156 20.8844 32 20 32ZM29.6 32C28.7156 32 28 32.7156 28 33.6C28 34.4844 28.7156 35.2 29.6 35.2C30.4844 35.2 31.2 34.4844 31.2 33.6C31.2 32.7156 30.4844 32 29.6 32ZM7.2 36.8C6.31562 36.8 5.6 37.5156 5.6 38.4C5.6 39.2844 6.31562 40 7.2 40C8.08438 40 8.8 39.2844 8.8 38.4C8.8 37.5156 8.08438 36.8 7.2 36.8ZM20 36.8C19.1156 36.8 18.4 37.5156 18.4 38.4C18.4 39.2844 19.1156 40 20 40C20.8844 40 21.6 39.2844 21.6 38.4C21.6 37.5156 20.8844 36.8 20 36.8ZM32.8 36.8C31.9156 36.8 31.2 37.5156 31.2 38.4C31.2 39.2844 31.9156 40 32.8 40C33.6844 40 34.4 39.2844 34.4 38.4C34.4 37.5156 33.6844 36.8 32.8 36.8Z" fill="#333333"/>
</svg>
