<svg width="40" height="40" viewBox="0 0 40 40" fill="none" xmlns="http://www.w3.org/2000/svg">
<path d="M9.6 0V8.8H19.2V0H9.6ZM20.8 0V8.8H30.4V0H20.8ZM9.6 10.4V19.2H19.2V10.4H9.6ZM20.8 10.4V19.2H30.4V10.4H20.8ZM2.4 17.6C1.08438 17.6 0 18.6844 0 20C0 21.3 1.05625 22.3719 2.35 22.4C2.25312 23.75 1.95625 24.9062 1.625 26.025C1.22812 27.3625 0.8 28.6969 0.8 30.25C0.8 31.6281 1.26562 32.7656 1.675 33.725C2.08438 34.6844 2.4 35.4656 2.4 36V40H37.6V36C37.6 35.4656 37.9156 34.725 38.325 33.775C38.7344 32.825 39.2 31.6625 39.2 30.25C39.2 28.6969 38.7719 27.3625 38.375 26.025C38.0438 24.9062 37.7469 23.75 37.65 22.4C38.9438 22.3719 40 21.3 40 20C40 18.6844 38.9156 17.6 37.6 17.6C36.2844 17.6 35.2 18.6844 35.2 20H36.8C36.8 19.5563 37.1562 19.2 37.6 19.2C38.0438 19.2 38.4 19.5563 38.4 20C38.4 20.4438 38.0438 20.8 37.6 20.8H2.4C1.95625 20.8 1.6 20.4438 1.6 20C1.6 19.5563 1.95625 19.2 2.4 19.2C2.84375 19.2 3.2 19.5563 3.2 20H4.8C4.8 18.6844 3.71562 17.6 2.4 17.6ZM3.95 22.4H6.5C6.41875 23.5063 6.2125 24.7469 5.975 25.95C5.675 27.4531 5.35 28.8813 5.35 30.075C5.35 31.1688 5.69688 32.3906 6 33.5C6.17188 34.1281 6.325 34.7281 6.425 35.2H3.925C3.76875 34.4594 3.41562 33.7844 3.125 33.1C2.73438 32.1781 2.4 31.2719 2.4 30.25C2.4 29.0031 2.77188 27.8375 3.175 26.475C3.52188 25.3094 3.85312 23.9813 3.95 22.4ZM8.125 22.4H10.775C10.7094 23.3094 10.55 24.5844 10.4 25.825C10.2 27.4938 10 29.0563 10 29.925C10 30.7031 10.2 31.9531 10.4 33.225C10.5 33.8625 10.6 34.4969 10.675 35C10.6906 35.1 10.6875 35.1063 10.7 35.2H8.075C7.95938 34.5438 7.73438 33.8438 7.525 33.075C7.22813 31.9844 6.95 30.8219 6.95 30.075C6.95 29.1875 7.25 27.7906 7.55 26.275C7.8 25.0219 8.04688 23.6813 8.125 22.4ZM12.375 22.4H15C14.9719 23.1344 14.9313 24.25 14.85 25.725C14.75 27.5531 14.65 29.2406 14.65 29.75C14.65 30.2375 14.75 31.5938 14.85 33.025C14.9 33.7406 14.9375 34.4469 14.975 35C14.9813 35.1094 14.9938 35.1 15 35.2H12.35C12.3313 35.0625 12.3 34.9406 12.275 34.775C12.2 34.2531 12.1 33.6094 12 32.975C11.8 31.7094 11.6 30.3469 11.6 29.925C11.6 29.3531 11.8 27.6719 12 26C12.1563 24.7 12.3125 23.4062 12.375 22.4ZM16.625 22.4H19.2V35.2H16.6C16.5906 35.0812 16.5844 35.0531 16.575 34.9C16.5375 34.3438 16.5 33.6406 16.45 32.925C16.35 31.4969 16.25 29.9031 16.25 29.75C16.25 29.5375 16.35 27.6562 16.45 25.825C16.525 24.4375 16.5938 23.2406 16.625 22.4ZM20.8 22.4H23.375C23.4062 23.2406 23.475 24.4375 23.55 25.825C23.65 27.6562 23.75 29.5375 23.75 29.75C23.75 29.9031 23.65 31.4969 23.55 32.925C23.5 33.6406 23.4625 34.3438 23.425 34.9C23.4156 35.0531 23.4094 35.0812 23.4 35.2H20.8V22.4ZM25 22.4H27.625C27.6875 23.4062 27.8438 24.7 28 26C28.2 27.6719 28.4 29.3531 28.4 29.925C28.4 30.3469 28.2 31.7094 28 32.975C27.9 33.6094 27.8 34.2531 27.725 34.775C27.7 34.9406 27.6688 35.0625 27.65 35.2H25C25.0063 35.1 25.0188 35.1094 25.025 35C25.0625 34.4469 25.1 33.7406 25.15 33.025C25.25 31.5938 25.35 30.2375 25.35 29.75C25.35 29.2406 25.25 27.5531 25.15 25.725C25.0688 24.25 25.0281 23.1344 25 22.4ZM29.225 22.4H31.875C31.9531 23.6813 32.2 25.0219 32.45 26.275C32.75 27.7906 33.05 29.1875 33.05 30.075C33.05 30.8219 32.7719 31.9844 32.475 33.075C32.2656 33.8438 32.0406 34.5438 31.925 35.2H29.3C29.3125 35.1063 29.3094 35.1 29.325 35C29.4 34.4969 29.5 33.8625 29.6 33.225C29.8 31.9531 30 30.7031 30 29.925C30 29.0563 29.8 27.4938 29.6 25.825C29.45 24.5844 29.2906 23.3094 29.225 22.4ZM33.5 22.4H36.05C36.1469 23.9813 36.4781 25.3094 36.825 26.475C37.2281 27.8375 37.6 29.0031 37.6 30.25C37.6 31.3188 37.2656 32.2156 36.875 33.125C36.5844 33.8 36.2313 34.4625 36.075 35.2H33.575C33.675 34.7281 33.8281 34.1281 34 33.5C34.3031 32.3906 34.65 31.1688 34.65 30.075C34.65 28.8813 34.325 27.4531 34.025 25.95C33.7875 24.7469 33.5812 23.5063 33.5 22.4ZM4 36.8H36V38.4H4V36.8Z" fill="#333333"/>
</svg>
