<svg width="40" height="40" viewBox="0 0 40 40" fill="none" xmlns="http://www.w3.org/2000/svg">
<path d="M35.2 0C33.3844 0 31.8438 0.95 31.025 2.4C31.0844 2.39688 31.1406 2.4 31.2 2.4C31.7688 2.4 32.3094 2.49375 32.825 2.65C33.4062 2.00938 34.2469 1.6 35.2 1.6C36.9938 1.6 38.4 3.00625 38.4 4.8V15.2H40V4.8C40 2.10938 37.8906 0 35.2 0ZM31.2 4C28.9938 4 27.2 5.79375 27.2 8C27.2 8.44062 27.5563 8.8 28 8.8H34.4C34.8438 8.8 35.2 8.44062 35.2 8C35.2 5.79375 33.4062 4 31.2 4ZM28.8 9.6C28.3594 9.6 28 9.95937 28 10.4C28 10.8406 28.3594 11.2 28.8 11.2C29.2406 11.2 29.6 10.8406 29.6 10.4C29.6 9.95937 29.2406 9.6 28.8 9.6ZM31.2 9.6C30.7594 9.6 30.4 9.95937 30.4 10.4C30.4 10.8406 30.7594 11.2 31.2 11.2C31.6406 11.2 32 10.8406 32 10.4C32 9.95937 31.6406 9.6 31.2 9.6ZM33.6 9.6C33.1594 9.6 32.8 9.95937 32.8 10.4C32.8 10.8406 33.1594 11.2 33.6 11.2C34.0406 11.2 34.4 10.8406 34.4 10.4C34.4 9.95937 34.0406 9.6 33.6 9.6ZM28 12C27.5594 12 27.2 12.3594 27.2 12.8C27.2 13.2406 27.5594 13.6 28 13.6C28.4406 13.6 28.8 13.2406 28.8 12.8C28.8 12.3594 28.4406 12 28 12ZM31.2 12C30.7594 12 30.4 12.3594 30.4 12.8C30.4 13.2406 30.7594 13.6 31.2 13.6C31.6406 13.6 32 13.2406 32 12.8C32 12.3594 31.6406 12 31.2 12ZM34.4 12C33.9594 12 33.6 12.3594 33.6 12.8C33.6 13.2406 33.9594 13.6 34.4 13.6C34.8406 13.6 35.2 13.2406 35.2 12.8C35.2 12.3594 34.8406 12 34.4 12ZM27.2 14.4C26.7594 14.4 26.4 14.7594 26.4 15.2C26.4 15.6406 26.7594 16 27.2 16C27.6406 16 28 15.6406 28 15.2C28 14.7594 27.6406 14.4 27.2 14.4ZM31.2 14.4C30.7594 14.4 30.4 14.7594 30.4 15.2C30.4 15.6406 30.7594 16 31.2 16C31.6406 16 32 15.6406 32 15.2C32 14.7594 31.6406 14.4 31.2 14.4ZM35.2 14.4C34.7594 14.4 34.4 14.7594 34.4 15.2C34.4 15.6406 34.7594 16 35.2 16C35.6406 16 36 15.6406 36 15.2C36 14.7594 35.6406 14.4 35.2 14.4ZM0.8 16.8C0.359375 16.8 0 17.1594 0 17.6V19.2C0 19.6437 0.359375 20 0.8 20H39.2C39.6437 20 40 19.6437 40 19.2V17.6C40 17.1594 39.6437 16.8 39.2 16.8H0.8ZM0.8 21.6C1.7125 21.6 2.4 22.2875 2.4 23.2V27.2C2.4 31.2062 5.08125 34.5875 8.75 35.65C8.57812 36.3531 7.99375 36.8 7.2 36.8C6.9125 36.7969 6.64375 36.9469 6.49688 37.1969C6.35312 37.4469 6.35312 37.7531 6.49688 38.0031C6.64375 38.2531 6.9125 38.4031 7.2 38.4C8.70938 38.4 9.9625 37.3562 10.3 35.95C10.5969 35.9812 10.8969 36 11.2 36H28.8C29.1031 36 29.4031 35.9812 29.7 35.95C30.0375 37.3562 31.2906 38.4 32.8 38.4C33.0875 38.4031 33.3563 38.2531 33.5031 38.0031C33.6469 37.7531 33.6469 37.4469 33.5031 37.1969C33.3563 36.9469 33.0875 36.7969 32.8 36.8C32.0063 36.8 31.4219 36.3531 31.25 35.65C34.9188 34.5875 37.6 31.2062 37.6 27.2V23.2C37.6 22.2875 38.2875 21.6 39.2 21.6H0.8Z" fill="#333333"/>
</svg>
