<svg width="40" height="40" viewBox="0 0 40 40" fill="none" xmlns="http://www.w3.org/2000/svg">
<g clip-path="url(#clip0)">
<path d="M4.00002 8C2.67815 8 1.60002 9.07812 1.60002 10.4V21.45C2.63752 20.55 3.95002 19.8219 5.60002 19.25V16C5.60002 13.8719 9.2344 13.6 12.4 13.6C15.5656 13.6 19.2 13.8719 19.2 16V17.6C19.4688 17.5969 19.725 17.6 20 17.6C20.275 17.6 20.5313 17.5969 20.8 17.6V16C20.8 13.8719 24.4344 13.6 27.6 13.6C30.7656 13.6 34.4 13.8719 34.4 16V19.225C36.0469 19.7938 37.3531 20.5375 38.4 21.45V10.4C38.4 9.07812 37.3219 8 36 8H4.00002ZM20 19.2C4.72502 19.2 -0.0124753 22.025 2.46579e-05 29.6H40C40.0125 21.975 35.275 19.2 20 19.2ZM2.46579e-05 31.2V40H5.60002V36.8C5.60002 35.65 6.05002 35.2 7.20002 35.2H32.8C33.95 35.2 34.4 35.65 34.4 36.8V40H40V31.2H2.46579e-05Z" fill="#333333"/>
</g>
<defs>
<clipPath id="clip0">
<rect width="40" height="40" fill="white"/>
</clipPath>
</defs>
</svg>
