<svg xmlns="http://www.w3.org/2000/svg" xmlns:xlink="http://www.w3.org/1999/xlink" viewBox="0 0 50 50" fill="#333333">
  <path d="M4 0L4 48L25.125 48L24.9375 48.71875C24.835938 49.066406 24.925781 49.441406 25.179688 49.703125C25.433594 49.960938 25.804688 50.0625 26.15625 49.96875L32.15625 48.375C32.324219 48.320313 32.476563 48.222656 32.59375 48.09375L48.40625 32.40625C48.53125 32.296875 48.628906 32.15625 48.6875 32L48.8125 31.90625C50.414063 30.304688 50.414063 27.695313 48.8125 26.09375C47.210938 24.492188 44.601563 24.492188 43 26.09375L42.3125 26.8125L42.34375 26.84375L40 29.1875L40 14.59375L25.40625 0 Z M 25 2.40625L37.59375 15L25 15 Z M 43.75 28.25L46.75 31.25L32.09375 45.8125L29.125 42.90625 Z M 28.15625 44.75L30.28125 46.8125L27.34375 47.59375Z" fill="#333333" />
</svg>