<svg width="40" height="40" viewBox="0 0 40 40" fill="none" xmlns="http://www.w3.org/2000/svg">
<path d="M7.99998 0C6.6781 0 5.59998 1.07812 5.59998 2.4V14.4H34.4V2.4C34.4 1.07812 33.3219 0 32 0H7.99998ZM11.2 4.8C11.6406 4.8 12 5.15938 12 5.6V11.2C12 11.6406 11.6406 12 11.2 12C10.7594 12 10.4 11.6406 10.4 11.2V5.6C10.4 5.15938 10.7594 4.8 11.2 4.8ZM5.59998 16V35.2C5.59998 36.5219 6.6781 37.6 7.99998 37.6V38.4C7.99998 39.2812 8.71873 40 9.59998 40H12C12.8812 40 13.6 39.2812 13.6 38.4V37.6H26.4V38.4C26.4 39.2812 27.1187 40 28 40H30.4C31.2812 40 32 39.2812 32 38.4V37.6C33.3219 37.6 34.4 36.5219 34.4 35.2V16H5.59998ZM11.2 18.4C11.6406 18.4 12 18.7594 12 19.2V24.8C12 25.2438 11.6406 25.6 11.2 25.6C10.7594 25.6 10.4 25.2438 10.4 24.8V19.2C10.4 18.7594 10.7594 18.4 11.2 18.4Z" fill="#333333"/>
</svg>
