<svg xmlns="http://www.w3.org/2000/svg" xmlns:xlink="http://www.w3.org/1999/xlink" viewBox="0 0 50 50" fill="#333333">
  <path d="M15 7C7.8545455 7 2 12.854545 2 20C2 34.761905 18.678418 42.033447 24.359375 46.767578L25 47.300781L25.640625 46.767578C31.321582 42.033447 48 34.761905 48 20C48 12.854545 42.145455 7 35 7C30.940309 7 27.358486 8.8903095 25 11.847656C22.641514 8.8903095 19.059691 7 15 7 z M 15 9C18.866667 9 22.238717 10.924235 24.15625 13.9375L25 15.261719L25.84375 13.9375C27.761283 10.924235 31.133333 9 35 9C41.054545 9 46 13.945455 46 20C46 32.887672 31.59915 39.572074 25 44.777344C18.40085 39.572074 4 32.887672 4 20C4 13.945455 8.9454545 9 15 9 z" fill="#333333" />
</svg>