<svg width="24" height="20" viewBox="0 0 24 20" fill="none" xmlns="http://www.w3.org/2000/svg">
<path d="M6.54492 0C2.92992 0 0 2.66357 0 5.94993C0 11.6703 7.29898 17.1362 10.709 19.5703C10.7122 19.5727 10.7155 19.5751 10.7188 19.5774C10.7421 19.5941 10.7739 19.6178 10.7969 19.6342L10.7988 19.6325C11.1448 19.8701 11.5664 19.9991 12 20C12.4343 19.9995 12.8566 19.8705 13.2031 19.6325V19.6342C13.2099 19.6294 13.2198 19.6231 13.2266 19.6183C13.2317 19.6146 13.239 19.6095 13.2441 19.6058C13.2507 19.6005 13.2572 19.5952 13.2637 19.5898C16.6631 17.1645 24 11.6839 24 5.94993C24 2.66357 21.0701 0 17.4551 0C14.0001 0 12 2.72727 12 2.72727C12 2.72727 9.99992 0 6.54492 0Z" fill="white"/>
</svg>
