<svg width="40" height="40" viewBox="0 0 40 40" fill="none" xmlns="http://www.w3.org/2000/svg">
<g clip-path="url(#clip0)">
<path d="M19.925 5.62487C19.7781 5.6155 19.625 5.63112 19.475 5.64987L16.55 6.04987C15.9469 6.128 15.4188 6.4405 15.05 6.92487C14.6813 7.40612 14.5188 7.99675 14.6 8.59987L14.65 8.99987L9.52501 9.67487C7.72813 9.91237 6.97813 10.9467 6.30001 11.8499C5.63126 12.7405 5.25626 13.2249 4.12501 13.3749C3.68751 13.4342 3.36563 13.8374 3.42501 14.2749C3.46563 14.5811 3.68126 14.8249 3.95001 14.9249C4.03751 14.9592 4.12501 14.9749 4.22501 14.9749C4.25938 14.9749 4.31251 14.9811 4.35001 14.9749L33.625 11.0749C34.0625 11.0155 34.3594 10.6374 34.3 10.1999C34.2563 9.87175 34.0281 9.60612 33.725 9.52487C33.6219 9.49675 33.5125 9.48425 33.4 9.49987C32.2781 9.64987 31.7813 9.26237 30.9 8.57487C30.0125 7.88112 29.0219 7.10925 27.225 7.34987L22.1 8.02487L22.05 7.59987C21.9719 6.99675 21.6594 6.46862 21.175 6.09987C20.8125 5.82175 20.3688 5.653 19.925 5.62487ZM19.7 7.24987C19.8781 7.228 20.0563 7.2655 20.2 7.37487C20.3438 7.48425 20.425 7.64362 20.45 7.82487L20.5 8.22487L16.225 8.79987L16.175 8.37487C16.15 8.19675 16.2156 8.01862 16.325 7.87487C16.4344 7.73112 16.5969 7.64987 16.775 7.62487L19.7 7.24987ZM4.00001 16.7999C3.55938 16.7999 3.20001 17.1592 3.20001 17.5999C3.20001 18.0405 3.55938 18.3999 4.00001 18.3999V24.7499C1.86563 24.4967 1.61876 23.2655 1.60001 23.1249C1.55626 22.6842 1.17188 22.3624 0.725009 22.3999C0.284384 22.4436 -0.0437415 22.8342 8.53045e-06 23.2749C0.100009 24.2655 1.08751 26.0655 4.00001 26.3499V36.1499C4.00001 38.2686 5.73126 39.9999 7.85001 39.9999H32.15C34.2656 39.9999 36 38.2686 36 36.1499V26.3499C38.9125 26.0655 39.9 24.2655 40 23.2749C40.0438 22.8405 39.7313 22.478 39.3 22.4249C38.8625 22.3686 38.4594 22.6686 38.4 23.0999C38.3781 23.2561 38.1344 24.4967 36 24.7499V18.3999C36.4438 18.3999 36.8 18.0405 36.8 17.5999C36.8 17.1592 36.4438 16.7999 36 16.7999H4.00001Z" fill="#333333"/>
</g>
<defs>
<clipPath id="clip0">
<rect width="40" height="40" fill="white"/>
</clipPath>
</defs>
</svg>
