<svg width="40" height="40" viewBox="0 0 40 40" fill="none" xmlns="http://www.w3.org/2000/svg">
<path d="M20 1.6001C12.525 1.6001 6.40002 7.7251 6.40002 15.2001C6.40002 20.547 9.97502 26.7938 14.4 29.8751V34.4001C14.4 35.7595 15.4406 36.8001 16.8 36.8001L18.4 38.4001H21.6L23.2 36.8001C24.5594 36.8001 25.6 35.7595 25.6 34.4001V29.8751C30.025 26.7938 33.6 20.547 33.6 15.2001C33.6 7.7251 27.475 1.6001 20 1.6001ZM20 3.2001C26.6031 3.2001 32 8.59697 32 15.2001C32 19.9376 28.35 26.197 24.325 28.8001H15.675C11.65 26.197 8.00002 19.9376 8.00002 15.2001C8.00002 8.59697 13.3969 3.2001 20 3.2001Z" fill="#333333"/>
</svg>
