<svg width="30" height="30" viewBox="0 0 30 30" fill="none" xmlns="http://www.w3.org/2000/svg">
<path d="M9.54492 5C5.92992 5 3 7.55702 3 10.7119C3 16.2035 10.299 21.4507 13.709 23.7875C13.7122 23.7898 13.7155 23.7921 13.7188 23.7943C13.7421 23.8103 13.7739 23.8331 13.7969 23.8489L13.7988 23.8472C14.1448 24.0753 14.5664 24.1991 15 24.2C15.4343 24.1995 15.8566 24.0757 16.2031 23.8472V23.8489C16.2099 23.8443 16.2198 23.8382 16.2266 23.8335C16.2317 23.83 16.239 23.8251 16.2441 23.8216C16.2507 23.8165 16.2572 23.8114 16.2637 23.8063C19.6631 21.4779 27 16.2166 27 10.7119C27 7.55702 24.0701 5 20.4551 5C17.0001 5 15 7.61818 15 7.61818C15 7.61818 12.9999 5 9.54492 5Z" fill="#333333"/>
</svg>
