<svg width="25" height="36" viewBox="0 0 25 36" fill="none" xmlns="http://www.w3.org/2000/svg">
<path d="M12.5 0C5.60913 0 0 5.61508 0 12.5133C0 21.9593 11.4288 35.1508 11.9141 35.7068C12.0636 35.8778 12.2742 35.9756 12.5 35.9756C12.7258 35.9756 12.9364 35.8748 13.0859 35.7068C13.5712 35.1508 25 22.0173 25 12.5133C25 5.61508 19.3909 0 12.5 0ZM12.5 7.69858L18.75 11.4623L17.9688 12.7821V18.7699H7.03125V12.7821L6.25 11.4623L12.5 7.69858ZM12.5 9.50714L8.59375 11.8534V17.2057H10.9375V13.2953H14.0625V17.2057H16.4062V11.8534L12.5 9.50714Z" fill="#333333" fill-opacity="0.8"/>
</svg>
