<svg width="206" height="80" viewBox="0 0 206 80" fill="none" xmlns="http://www.w3.org/2000/svg">
<path d="M46.7275 30.542C45.79 30.542 44.9697 30.4004 44.2666 30.1172C43.5635 29.8438 42.9824 29.4531 42.5234 28.9453C42.084 28.4668 41.752 27.9102 41.5273 27.2754C41.3125 26.6406 41.2051 25.9668 41.2051 25.2539C41.2051 24.4629 41.332 23.6572 41.5859 22.8369C41.8398 22.0068 42.2061 21.2354 42.6846 20.5225C43.1729 19.7803 43.7588 19.1455 44.4424 18.6182C45.1357 18.0908 45.9072 17.7148 46.7568 17.4902C46.1318 17.041 45.668 16.5039 45.3652 15.8789C45.0723 15.2539 44.9258 14.5898 44.9258 13.8867C44.9258 13.1152 45.0869 12.3486 45.4092 11.5869C45.7412 10.8154 46.2002 10.1221 46.7861 9.50684C47.3916 8.8623 48.0947 8.35938 48.8955 7.99805C49.7061 7.62695 50.5752 7.44141 51.5029 7.44141C52.0986 7.44141 52.6602 7.52441 53.1875 7.69043C53.7148 7.84668 54.1689 8.08105 54.5498 8.39355C54.9502 8.71582 55.2578 9.11133 55.4727 9.58008C55.6875 10.0488 55.7949 10.5859 55.7949 11.1914C55.7949 11.6309 55.7363 12.041 55.6191 12.4219C55.502 12.8027 55.3408 13.1348 55.1357 13.418C54.9307 13.7012 54.6914 13.9209 54.418 14.0771C54.1445 14.2334 53.8613 14.3115 53.5684 14.3115C53.0215 14.3115 52.5527 14.043 52.1621 13.5059C52.3281 13.4473 52.4941 13.3301 52.6602 13.1543C52.8262 12.9687 52.9727 12.749 53.0996 12.4951C53.2168 12.251 53.3096 11.9873 53.3779 11.7041C53.4463 11.4209 53.4805 11.1475 53.4805 10.8838C53.4805 10.3174 53.3096 9.88281 52.9678 9.58008C52.6846 9.33594 52.3037 9.21387 51.8252 9.21387C51.3955 9.21387 50.9902 9.33105 50.6094 9.56543C50.2285 9.7998 49.9014 10.1221 49.6279 10.5322C49.3545 10.9326 49.1396 11.3867 48.9834 11.8945C48.8369 12.4023 48.7637 12.9199 48.7637 13.4473C48.7637 14.3945 48.998 15.21 49.4668 15.8936C49.9746 16.6553 50.751 17.1777 51.7959 17.4609C50.7803 17.6855 49.8428 18.2031 48.9834 19.0137C48.2119 19.7559 47.5918 20.6494 47.123 21.6943C46.6641 22.7393 46.4346 23.7158 46.4346 24.624C46.4346 25.5322 46.6543 26.25 47.0938 26.7773C47.582 27.3633 48.3096 27.6562 49.2764 27.6562C49.7549 27.6562 50.2578 27.5928 50.7852 27.4658C51.3223 27.3291 51.835 27.1338 52.3232 26.8799C53.4561 26.3037 54.291 25.542 54.8281 24.5947L55.5166 24.9023C54.7256 26.6309 53.5195 28.0078 51.8984 29.0332C51.1172 29.5215 50.2871 29.8926 49.4082 30.1465C48.5293 30.4102 47.6357 30.542 46.7275 30.542ZM58.373 30.1758C57.2305 30.1758 56.3076 29.8193 55.6045 29.1064C54.7842 28.2666 54.374 27.0166 54.374 25.3564C54.374 24.6533 54.4473 23.9111 54.5938 23.1299C54.7305 22.3486 54.9355 21.5771 55.209 20.8154C55.834 19.0967 56.6885 17.71 57.7725 16.6553C59.0225 15.4541 60.4629 14.8535 62.0938 14.8535C62.9043 14.8535 63.5098 14.9951 63.9102 15.2783C64.3203 15.5518 64.5254 15.918 64.5254 16.377V16.5967L64.8477 15H69.1689L67.0156 25.1953C66.9277 25.4883 66.8838 25.8105 66.8838 26.1621C66.8838 27.0215 67.2939 27.4512 68.1143 27.4512C68.6611 27.4512 69.1592 27.1729 69.6084 26.6162C69.9893 26.1475 70.3018 25.4834 70.5459 24.624H71.8057C71.2686 26.1475 70.6191 27.3535 69.8574 28.2422C69.2129 28.9746 68.4854 29.502 67.6748 29.8242C67.0791 30.0586 66.4492 30.1758 65.7852 30.1758C64.9355 30.1758 64.2568 29.9463 63.749 29.4873C63.251 29.0186 62.9482 28.3301 62.8408 27.4219C62.2744 28.2227 61.6787 28.8477 61.0537 29.2969C60.2529 29.8828 59.3594 30.1758 58.373 30.1758ZM60.3213 27.2754C60.5459 27.2754 60.7803 27.2168 61.0244 27.0996C61.2783 26.9824 61.5225 26.8164 61.7568 26.6016C62.2842 26.0938 62.6357 25.4346 62.8115 24.624L64.2471 17.8564C64.2471 17.7588 64.2227 17.6465 64.1738 17.5195C64.1348 17.3828 64.0762 17.2559 63.998 17.1387C63.7637 16.8555 63.4365 16.7139 63.0166 16.7139C62.6162 16.7139 62.2256 16.8457 61.8447 17.1094C61.4736 17.373 61.1221 17.7393 60.79 18.208C60.2041 19.0576 59.7207 20.166 59.3398 21.5332C59.1641 22.1387 59.0322 22.7393 58.9443 23.335C58.8564 23.9209 58.8125 24.4531 58.8125 24.9316C58.8125 25.9277 58.998 26.6016 59.3691 26.9531C59.4961 27.0898 59.6377 27.1777 59.7939 27.2168C59.9502 27.2559 60.126 27.2754 60.3213 27.2754ZM73.9736 30.1758C73.251 30.1758 72.6113 30.0684 72.0547 29.8535C71.498 29.6289 71.0293 29.3213 70.6484 28.9307C70.2969 28.5693 70.0332 28.1689 69.8574 27.7295C69.6816 27.2803 69.5938 26.8164 69.5938 26.3379C69.5938 25.6836 69.7598 25.0928 70.0918 24.5654C70.3848 24.0967 70.751 23.7598 71.1904 23.5547C71.9717 22.168 72.6504 20.7617 73.2266 19.3359C73.8027 17.9102 74.3545 16.3525 74.8818 14.6631L79.3203 14.0771C79.4375 16.6162 79.5449 18.5645 79.6426 19.9219C79.7402 21.3184 79.8232 22.3438 79.8916 22.998C79.9502 23.7598 79.9795 24.4238 79.9795 24.9902C79.9795 25.498 79.9404 25.8789 79.8623 26.1328C80.7607 25.6055 81.4785 25.1025 82.0156 24.624H83.2754C82.5625 25.4541 81.8252 26.167 81.0635 26.7627C80.3115 27.3584 79.5205 27.8955 78.6904 28.374C78.0947 28.999 77.3477 29.4629 76.4492 29.7656C75.668 30.0391 74.8428 30.1758 73.9736 30.1758ZM73.0215 27.8027C73.7734 27.8027 74.374 27.5977 74.8232 27.1875C75.3604 26.6992 75.6289 25.9766 75.6289 25.0195C75.6289 24.6191 75.6045 24.1162 75.5557 23.5107L75.4824 22.6172C75.3945 21.8457 75.3066 20.9521 75.2188 19.9365L75.0576 17.915C74.7744 18.8232 74.4375 19.7266 74.0469 20.625C73.6562 21.5137 73.1826 22.5 72.626 23.584C73.085 23.8379 73.3145 24.1846 73.3145 24.624C73.3145 25.0146 73.1973 25.3516 72.9629 25.6348C72.709 25.9473 72.3867 26.1035 71.9961 26.1035C71.8008 26.1035 71.6348 26.0791 71.498 26.0303C71.3711 25.9717 71.2686 25.8643 71.1904 25.708C71.1904 26.4307 71.332 26.9629 71.6152 27.3047C71.8984 27.6367 72.3672 27.8027 73.0215 27.8027ZM86.6885 37.5C86.2197 37.5 85.7803 37.4365 85.3701 37.3096C84.9697 37.1924 84.623 37.0117 84.3301 36.7676C84.0176 36.5234 83.7734 36.2158 83.5977 35.8447C83.4219 35.4834 83.334 35.0635 83.334 34.585C83.334 33.4521 83.8662 32.4805 84.9307 31.6699C85.7314 31.0742 86.8301 30.5566 88.2266 30.1172L88.5928 28.5059C88.0068 29.1504 87.3721 29.6045 86.6885 29.8682C86.1611 30.0732 85.5947 30.1758 84.9893 30.1758C84.0322 30.1758 83.2754 29.8926 82.7188 29.3262C82.0938 28.7012 81.7812 27.7881 81.7812 26.5869C81.7812 26.0205 81.8594 25.3662 82.0156 24.624L84.0518 15H88.373L86.2197 25.1953C86.1611 25.4395 86.1318 25.6934 86.1318 25.957C86.1318 26.3379 86.1953 26.6406 86.3223 26.8652C86.4688 27.1387 86.7031 27.2754 87.0254 27.2754C87.5527 27.2754 88.0264 27.041 88.4463 26.5723C88.8076 26.1719 89.1152 25.5859 89.3691 24.8145L91.4639 15H95.7852L92.8115 28.916C93.7588 28.6035 94.5156 28.1348 95.082 27.5098C95.6973 26.8359 96.2002 25.874 96.5908 24.624H97.8506C97.3135 26.4014 96.5127 27.7734 95.4482 28.7402C94.667 29.4434 93.7002 29.9414 92.5479 30.2344L92.0938 32.4023C91.7129 34.3164 90.9512 35.7031 89.8086 36.5625C88.9785 37.1875 87.9385 37.5 86.6885 37.5ZM86 35.1562C86.3027 35.1562 86.625 34.9365 86.9668 34.4971C87.2988 34.0674 87.5576 33.3984 87.7432 32.4902L87.9189 31.626C87.0107 31.9678 86.332 32.3145 85.8828 32.666C85.2871 33.1152 84.9893 33.6182 84.9893 34.1748C84.9893 34.4385 85.0723 34.6582 85.2383 34.834C85.4238 35.0488 85.6777 35.1562 86 35.1562ZM103.139 33.4131C102.592 33.4131 102.113 33.3887 101.703 33.3398C101.293 33.291 100.907 33.1738 100.546 32.9883C99.5986 32.5293 99.125 31.6113 99.125 30.2344C99.125 29.5703 99.2275 28.7744 99.4326 27.8467C99.6475 26.9189 99.9502 25.918 100.341 24.8438C101.2 22.4805 102.265 20.21 103.534 18.0322C102.538 18.0908 101.747 18.2422 101.161 18.4863C100.585 18.7207 100.204 19.0869 100.019 19.585C100.106 19.585 100.194 19.6875 100.282 19.8926C100.37 20.0977 100.414 20.3076 100.414 20.5225C100.414 20.874 100.253 21.1572 99.9307 21.3721C99.6084 21.5869 99.208 21.6943 98.7295 21.6943C98.1924 21.6943 97.7529 21.5479 97.4111 21.2549C97.0498 20.9521 96.8691 20.5176 96.8691 19.9512C96.8691 19.4531 97.0205 18.9795 97.3232 18.5303C97.626 18.0713 98.0557 17.6758 98.6123 17.3438C99.1787 17.002 99.833 16.7383 100.575 16.5527C101.327 16.3574 102.133 16.2598 102.992 16.2598C103.412 16.2598 103.935 16.2891 104.56 16.3477C106.239 13.7012 107.919 11.626 109.599 10.1221C111.552 8.37402 113.349 7.5 114.989 7.5C115.966 7.5 116.757 7.6416 117.362 7.9248L112.66 30H108.339L110.639 19.1162C109.916 18.7842 109.237 18.5352 108.603 18.3691C107.978 18.2031 107.318 18.0908 106.625 18.0322C105.492 20.4834 104.564 22.9883 103.842 25.5469C103.1 28.1152 102.729 30.1807 102.729 31.7432C102.729 32.5146 102.865 33.0713 103.139 33.4131ZM112.66 9.62402C111.791 10.0928 110.878 10.9766 109.921 12.2754C108.983 13.5645 108.095 15.0537 107.255 16.7432C108.622 17.0068 109.843 17.3535 110.917 17.7832L112.66 9.62402ZM120.937 30.1758C119.462 30.1758 118.324 29.8047 117.523 29.0625C116.674 28.2715 116.249 27.0557 116.249 25.415C116.249 24.7998 116.312 24.1162 116.439 23.3643C116.557 22.6025 116.742 21.8457 116.996 21.0938C117.592 19.2676 118.437 17.8125 119.53 16.7285C120.878 15.4004 122.475 14.7363 124.32 14.7363C125.521 14.7363 126.41 15.0244 126.986 15.6006C127.436 16.0596 127.66 16.6895 127.66 17.4902C127.66 18.1934 127.504 18.7402 127.191 19.1309C126.898 19.4922 126.522 19.6729 126.063 19.6729C125.731 19.6729 125.38 19.5557 125.009 19.3213C125.253 18.6865 125.375 18.0957 125.375 17.5488C125.375 17.168 125.302 16.8701 125.155 16.6553C125.019 16.4307 124.813 16.3184 124.54 16.3184C123.954 16.3184 123.344 16.8359 122.709 17.8711C122.133 18.7891 121.654 19.9561 121.273 21.3721C120.883 22.7588 120.688 24.0137 120.688 25.1367C120.688 26.1133 120.873 26.7871 121.244 27.1582C121.566 27.4902 122.104 27.6562 122.855 27.6562C123.939 27.6562 124.931 27.3633 125.829 26.7773C126.21 26.5332 126.576 26.2451 126.928 25.9131C127.279 25.5713 127.689 25.1416 128.158 24.624H129.184C128.236 26.2256 127.147 27.5 125.917 28.4473C124.403 29.5996 122.743 30.1758 120.937 30.1758ZM132.45 30.1758C130.976 30.1758 129.838 29.8047 129.037 29.0625C128.188 28.2715 127.763 27.0557 127.763 25.415C127.763 24.7998 127.826 24.1162 127.953 23.3643C128.07 22.6025 128.256 21.8457 128.51 21.0938C129.105 19.2676 129.95 17.8125 131.044 16.7285C132.392 15.4004 133.988 14.7363 135.834 14.7363C137.035 14.7363 137.924 15.0244 138.5 15.6006C138.949 16.0596 139.174 16.6895 139.174 17.4902C139.174 18.1934 139.018 18.7402 138.705 19.1309C138.412 19.4922 138.036 19.6729 137.577 19.6729C137.245 19.6729 136.894 19.5557 136.522 19.3213C136.767 18.6865 136.889 18.0957 136.889 17.5488C136.889 17.168 136.815 16.8701 136.669 16.6553C136.532 16.4307 136.327 16.3184 136.054 16.3184C135.468 16.3184 134.857 16.8359 134.223 17.8711C133.646 18.7891 133.168 19.9561 132.787 21.3721C132.396 22.7588 132.201 24.0137 132.201 25.1367C132.201 26.1133 132.387 26.7871 132.758 27.1582C133.08 27.4902 133.617 27.6562 134.369 27.6562C135.453 27.6562 136.444 27.3633 137.343 26.7773C137.724 26.5332 138.09 26.2451 138.441 25.9131C138.793 25.5713 139.203 25.1416 139.672 24.624H140.697C139.75 26.2256 138.661 27.5 137.431 28.4473C135.917 29.5996 134.257 30.1758 132.45 30.1758ZM144.052 30.1172C142.567 30.1172 141.42 29.7559 140.609 29.0332C139.701 28.2324 139.247 27.0166 139.247 25.3857C139.247 24.7705 139.311 24.0918 139.438 23.3496C139.564 22.5977 139.76 21.8408 140.023 21.0791C140.629 19.2627 141.493 17.8125 142.616 16.7285C143.974 15.4004 145.59 14.7363 147.465 14.7363C150.033 14.7363 151.317 16.333 151.317 19.5264V19.5557C151.376 19.5752 151.425 19.585 151.464 19.585H151.64C152.304 19.585 153.09 19.3994 153.998 19.0283C154.799 18.6963 155.556 18.2812 156.269 17.7832L156.532 18.6035C155.946 19.2188 155.189 19.7412 154.262 20.1709C153.344 20.6006 152.328 20.9082 151.215 21.0938C151.098 22.4512 150.834 23.6914 150.424 24.8145C150.014 25.9277 149.486 26.8848 148.842 27.6855C148.207 28.4668 147.479 29.0674 146.659 29.4873C145.839 29.9072 144.97 30.1172 144.052 30.1172ZM145.253 27.4219C145.604 27.4219 145.961 27.2656 146.322 26.9531C146.693 26.6309 147.04 26.1865 147.362 25.6201C147.685 25.0537 147.963 24.3896 148.197 23.6279C148.432 22.8662 148.607 22.0508 148.725 21.1816C148.432 21.1035 148.222 20.957 148.095 20.7422C147.978 20.5273 147.919 20.2539 147.919 19.9219C147.919 19.5117 148.002 19.1699 148.168 18.8965C148.334 18.623 148.563 18.4229 148.856 18.2959C148.817 17.6611 148.715 17.207 148.549 16.9336C148.461 16.7969 148.349 16.6992 148.212 16.6406C148.085 16.582 147.919 16.5527 147.714 16.5527C147.04 16.5527 146.381 17.0605 145.736 18.0762C145.141 18.9941 144.652 20.127 144.271 21.4746C143.9 22.793 143.715 23.9648 143.715 24.9902C143.715 25.4883 143.739 25.8936 143.788 26.2061C143.847 26.5186 143.939 26.7627 144.066 26.9385C144.184 27.1143 144.335 27.2412 144.521 27.3193C144.706 27.3877 144.95 27.4219 145.253 27.4219ZM171.093 30.1758C169.853 30.1758 168.935 29.8242 168.339 29.1211C167.821 28.5156 167.562 27.7393 167.562 26.792C167.562 26.3428 167.616 25.8203 167.724 25.2246C167.841 24.6289 168.012 23.8623 168.236 22.9248C168.461 21.9678 168.627 21.2061 168.734 20.6396C168.852 20.0635 168.91 19.5654 168.91 19.1455C168.91 18.1201 168.549 17.6074 167.826 17.6074C167.318 17.6074 166.85 17.876 166.42 18.4131C166.059 18.8721 165.746 19.5264 165.482 20.376L163.446 30H159.125L161.322 19.6436C161.381 19.4092 161.41 19.1602 161.41 18.8965C161.41 18.4961 161.347 18.1885 161.22 17.9736C161.054 17.71 160.814 17.5781 160.502 17.5781C159.936 17.5781 159.442 17.8516 159.022 18.3984C158.651 18.8672 158.334 19.5264 158.07 20.376L156.034 30H151.713L154.892 15H159.213L158.891 16.5527C159.477 15.8984 160.116 15.4346 160.81 15.1611C161.356 14.9561 161.938 14.8535 162.553 14.8535C163.393 14.8535 164.062 15.0488 164.56 15.4395C165.116 15.8789 165.473 16.543 165.629 17.4316C166.273 16.4355 167.016 15.7324 167.855 15.3223C168.451 15.0293 169.101 14.8828 169.804 14.8828C170.81 14.8828 171.605 15.1465 172.191 15.6738C172.816 16.25 173.129 17.1143 173.129 18.2666C173.129 18.9209 173.007 19.8242 172.763 20.9766C172.665 21.4551 172.548 21.9385 172.411 22.4268C172.167 23.3643 171.967 24.2285 171.811 25.0195C171.732 25.4297 171.693 25.7617 171.693 26.0156C171.693 26.416 171.781 26.7285 171.957 26.9531C172.143 27.168 172.455 27.2754 172.895 27.2754C173.49 27.2754 173.993 27.0312 174.403 26.543C174.716 26.1719 175.053 25.5322 175.414 24.624H176.674C175.932 26.8213 174.994 28.3594 173.861 29.2383C173.061 29.8633 172.138 30.1758 171.093 30.1758ZM179.794 30.1172C178.31 30.1172 177.162 29.7559 176.352 29.0332C175.443 28.2324 174.989 27.0166 174.989 25.3857C174.989 24.7705 175.053 24.0918 175.18 23.3496C175.307 22.5977 175.502 21.8408 175.766 21.0791C176.371 19.2627 177.235 17.8125 178.358 16.7285C179.716 15.4004 181.332 14.7363 183.207 14.7363C185.775 14.7363 187.06 16.333 187.06 19.5264V19.5557C187.118 19.5752 187.167 19.585 187.206 19.585H187.382C188.046 19.585 188.832 19.3994 189.74 19.0283C190.541 18.6963 191.298 18.2812 192.011 17.7832L192.274 18.6035C191.688 19.2188 190.932 19.7412 190.004 20.1709C189.086 20.6006 188.07 20.9082 186.957 21.0938C186.84 22.4512 186.576 23.6914 186.166 24.8145C185.756 25.9277 185.229 26.8848 184.584 27.6855C183.949 28.4668 183.222 29.0674 182.401 29.4873C181.581 29.9072 180.712 30.1172 179.794 30.1172ZM180.995 27.4219C181.347 27.4219 181.703 27.2656 182.064 26.9531C182.436 26.6309 182.782 26.1865 183.104 25.6201C183.427 25.0537 183.705 24.3896 183.939 23.6279C184.174 22.8662 184.35 22.0508 184.467 21.1816C184.174 21.1035 183.964 20.957 183.837 20.7422C183.72 20.5273 183.661 20.2539 183.661 19.9219C183.661 19.5117 183.744 19.1699 183.91 18.8965C184.076 18.623 184.306 18.4229 184.599 18.2959C184.56 17.6611 184.457 17.207 184.291 16.9336C184.203 16.7969 184.091 16.6992 183.954 16.6406C183.827 16.582 183.661 16.5527 183.456 16.5527C182.782 16.5527 182.123 17.0605 181.479 18.0762C180.883 18.9941 180.395 20.127 180.014 21.4746C179.643 22.793 179.457 23.9648 179.457 24.9902C179.457 25.4883 179.481 25.8936 179.53 26.2061C179.589 26.5186 179.682 26.7627 179.809 26.9385C179.926 27.1143 180.077 27.2412 180.263 27.3193C180.448 27.3877 180.692 27.4219 180.995 27.4219ZM192.201 30.1758C191.059 30.1758 190.136 29.8193 189.433 29.1064C188.612 28.2666 188.202 27.0166 188.202 25.3564C188.202 24.6533 188.275 23.9111 188.422 23.1299C188.559 22.3486 188.764 21.5771 189.037 20.8154C189.662 19.0967 190.517 17.71 191.601 16.6553C192.851 15.4541 194.291 14.8535 195.922 14.8535C196.732 14.8535 197.338 14.9951 197.738 15.2783C198.148 15.5518 198.354 15.918 198.354 16.377V16.4941L199.818 9.59473L204.257 8.99414L200.814 25.1953C200.727 25.4883 200.683 25.8105 200.683 26.1621C200.683 26.5723 200.78 26.8604 200.976 27.0264C201.171 27.1924 201.483 27.2754 201.913 27.2754C202.47 27.2754 202.968 27.0264 203.407 26.5283C203.778 26.0889 204.091 25.4541 204.345 24.624H205.604C205.077 26.1279 204.428 27.3145 203.656 28.1836C203.002 28.9062 202.274 29.4092 201.474 29.6924C200.897 29.8975 200.268 30 199.584 30C198.754 30 198.085 29.7803 197.577 29.3408C197.069 28.9014 196.757 28.2617 196.64 27.4219C196.103 28.2324 195.521 28.8574 194.896 29.2969C194.086 29.8828 193.188 30.1758 192.201 30.1758ZM194.149 27.2754C194.364 27.2754 194.594 27.2217 194.838 27.1143C195.092 27.0068 195.331 26.8555 195.556 26.6602C196.083 26.1816 196.435 25.5566 196.61 24.7852V24.624L198.075 17.7539C198.007 17.4805 197.909 17.2607 197.782 17.0947C197.577 16.8408 197.265 16.7139 196.845 16.7139C196.444 16.7139 196.054 16.8457 195.673 17.1094C195.302 17.373 194.95 17.7393 194.618 18.208C194.032 19.0576 193.549 20.166 193.168 21.5332C192.992 22.1387 192.86 22.7393 192.772 23.335C192.685 23.9209 192.641 24.4531 192.641 24.9316C192.641 25.9277 192.826 26.6016 193.197 26.9531C193.324 27.0898 193.466 27.1777 193.622 27.2168C193.778 27.2559 193.954 27.2754 194.149 27.2754Z" fill="white"/>
<path d="M25.2833 36.1001C18.8682 36.1001 13.6667 41.3016 13.6667 47.7168C13.6667 49.1412 13.9368 50.4996 14.4061 51.7607L4.10001 62.0668V68.9001H10.9333V64.8001H15.0333V60.7001H19.1333L21.2394 58.594C22.5005 59.0633 23.8589 59.3334 25.2833 59.3334C31.6985 59.3334 36.9 54.1319 36.9 47.7168C36.9 41.3016 31.6985 36.1001 25.2833 36.1001ZM28.0167 41.5668C29.904 41.5668 31.4333 43.0961 31.4333 44.9834C31.4333 46.8708 29.904 48.4001 28.0167 48.4001C26.1293 48.4001 24.6 46.8708 24.6 44.9834C24.6 43.0961 26.1293 41.5668 28.0167 41.5668Z" fill="white"/>
<path d="M38.8848 22.981C38.7562 22.97 38.6268 22.9765 38.5 23.0001C31.1083 24.2856 26.2048 29.9055 25.3922 37.7213C24.4117 47.1526 31.29 55.6272 40.7214 56.6077C50.1527 57.5882 58.6273 50.7098 59.6078 41.2785C60.4204 33.4627 56.9329 26.6135 49.9637 23.835C49.7888 23.7654 49.6018 23.7309 49.4135 23.7336C49.2252 23.7363 49.0392 23.776 48.8663 23.8506C48.6933 23.9251 48.5367 24.033 48.4055 24.168C48.2742 24.3031 48.1709 24.4627 48.1013 24.6377C48.0317 24.8127 47.9973 24.9997 48 25.188C48.0027 25.3763 48.0425 25.5622 48.117 25.7351C48.1916 25.9081 48.2995 26.0646 48.4346 26.1959C48.5696 26.3271 48.7292 26.4304 48.9042 26.5C54.7067 28.8133 57.4362 34.4444 56.7565 40.9821C55.9362 48.8724 48.9081 54.5767 41.0178 53.7564C33.1275 52.9361 27.4232 45.908 28.2435 38.0177C28.9232 31.4801 32.8344 26.8963 38.9886 25.8261C39.3354 25.772 39.6502 25.5927 39.8736 25.322C40.0969 25.0513 40.2132 24.7081 40.2004 24.3574C40.1876 24.0067 40.0466 23.6729 39.8041 23.4192C39.5616 23.1655 39.2345 23.0096 38.8848 22.981Z" fill="white"/>
<g clip-path="url(#clip0)">
<path d="M45.8302 42.0271C45.5802 42.2208 45.416 42.5047 45.3727 42.8179L41.5488 59.4344C41.5438 59.4528 41.5392 59.4713 41.535 59.4899L41.5227 59.5473L41.5241 59.5492C41.4974 59.7129 41.5046 59.8803 41.5453 60.0411C41.5861 60.2019 41.6594 60.3526 41.7608 60.4838C41.9573 60.7375 42.2465 60.9027 42.5649 60.9432C42.8832 60.9836 43.2046 60.8959 43.4583 60.6994L44.4148 59.9585L52.565 70.4807C53.3838 71.5377 54.903 71.7307 55.96 70.9119L71.2649 59.0571C72.3219 58.2384 72.5149 56.7191 71.6962 55.6621L63.546 45.14L64.5026 44.3991C64.7563 44.2026 64.9215 43.9133 64.962 43.595C65.0024 43.2766 64.9147 42.9553 64.7182 42.7016C64.6165 42.5701 64.4888 42.4609 64.343 42.381C64.1973 42.301 64.0366 42.252 63.871 42.2369L63.8474 42.2372C63.8117 42.2345 63.7759 42.2333 63.74 42.2337L58.1179 42.0838L54.9646 38.0128C54.5556 37.4848 53.7951 37.3882 53.2671 37.7972L52.3105 38.5381C51.7825 38.9471 51.6859 39.7076 52.0949 40.2356L53.4306 41.96L46.6768 41.7809C46.3737 41.7536 46.0714 41.8415 45.8302 42.0271V42.0271ZM53.3335 57.6417L59.0729 53.1962L65.0003 60.8486L59.2609 65.2942L53.3335 57.6417Z" fill="white"/>
</g>
<defs>
<clipPath id="clip0">
<rect width="36.2985" height="36.2985" fill="white" transform="translate(30 51.2278) rotate(-37.7604)"/>
</clipPath>
</defs>
</svg>
