<svg width="30" height="30" viewBox="0 0 30 30" fill="none" xmlns="http://www.w3.org/2000/svg">
<path d="M13.5948 4.92863C13.9547 4.16182 15.0453 4.16182 15.4052 4.92863L17.8273 10.0888C17.969 10.3907 18.2519 10.6021 18.5816 10.6525L24.0757 11.4911C24.8804 11.6139 25.209 12.5954 24.6405 13.178L20.6024 17.3163C20.3808 17.5435 20.2801 17.8623 20.3312 18.1756L21.2753 23.9682C21.4096 24.792 20.5352 25.408 19.8047 25.0044L14.9837 22.3403C14.6827 22.174 14.3173 22.174 14.0163 22.3403L9.19533 25.0044C8.46481 25.408 7.59044 24.792 7.7247 23.9682L8.66882 18.1756C8.71987 17.8623 8.61921 17.5435 8.39756 17.3163L4.35948 13.178C3.79097 12.5954 4.1196 11.6139 4.9243 11.4911L10.4184 10.6525C10.7481 10.6021 11.031 10.3907 11.1727 10.0888L13.5948 4.92863Z" fill="#333333"/>
</svg>
