<svg width="28" height="27" viewBox="0 0 28 27" fill="none" xmlns="http://www.w3.org/2000/svg">
<path d="M14 0C13.9149 0 13.8298 0.0176344 13.7503 0.0527344L0.359035 6.5332C0.140514 6.6304 0 6.84407 0 7.08047V9.18047C0 9.38447 0.105295 9.57458 0.279382 9.68438C0.453469 9.79478 0.672647 9.81056 0.860734 9.72656L14 3.29883L27.1405 9.72656C27.2208 9.76196 27.3055 9.78047 27.3913 9.78047C27.5063 9.78047 27.622 9.74738 27.7218 9.68438C27.8953 9.57398 28 9.38447 28 9.18047V7.08047C28 6.84407 27.8601 6.6298 27.641 6.5332L14.2497 0.0527344C14.1705 0.0176344 14.0851 0 14 0ZM14 4.57148L1.21739 10.8V26.4C1.21739 26.73 1.4913 27 1.82609 27H26.1739C26.5087 27 26.7826 26.73 26.7826 26.4V10.8L14 4.57148ZM13.4091 9.6H14.6265V10.8539C16.6535 11.0459 18.0052 12.2998 18.06 14.0578H16.6476C16.6111 13.0318 15.6674 12.1137 14.0178 12.1137C12.3683 12.1137 11.444 12.9722 11.444 13.9922C11.444 16.8182 18.2787 15.0244 18.2787 19.4824C18.2787 21.4084 16.9335 22.6323 14.6265 22.8363V24H13.4091V22.848C11.1752 22.668 9.73347 21.3902 9.7213 19.5902H11.1455C11.2369 20.6882 12.3439 21.6059 14.0178 21.6059C15.6917 21.6059 16.8366 20.8021 16.8366 19.5961C16.8366 16.4761 10.0126 18.6006 10.0126 14.0766C10.0126 12.3006 11.3091 11.0758 13.4091 10.8598V9.6Z" fill="white"/>
</svg>
