<svg width="30" height="30" viewBox="0 0 30 30" fill="none" xmlns="http://www.w3.org/2000/svg">
<path d="M14.3478 0L0.44837 5.07473C0.188519 5.14097 0 5.40591 0 5.66576V22.7446L14.3478 17.6087V0ZM15.6522 0V17.6087L19.5652 18.9742V8.00951L25.4348 10.1698V21.053L30 22.6834V5.66576C30 5.40591 29.8115 5.14097 29.5516 5.07473L15.6522 0ZM10.4348 7.62228V14.2052L4.56522 16.4878V9.96603L10.4348 7.62228ZM15 18.7704L0.529891 23.9266L14.7962 29.7351C14.8624 29.7351 14.9312 29.7962 15.0611 29.7962C15.1274 29.7962 15.2599 29.8013 15.3261 29.7351L29.4701 23.9266L15 18.7704Z" fill="#333333" fill-opacity="0.8"/>
</svg>
