<svg xmlns="http://www.w3.org/2000/svg" xmlns:xlink="http://www.w3.org/1999/xlink" width="50" height="50" viewBox="0 0 50 50" fill="#333333">
  <path d="M21 2C19.354545 2 18 3.3545455 18 5L18 7L8 7 A 1.0001 1.0001 0 1 0 8 9L9 9L9 45C9 46.654 10.346 48 12 48L38 48C39.654 48 41 46.654 41 45L41 9L42 9 A 1.0001 1.0001 0 1 0 42 7L32 7L32 5C32 3.3545455 30.645455 2 29 2L21 2 z M 21 4L29 4C29.554545 4 30 4.4454545 30 5L30 7L20 7L20 5C20 4.4454545 20.445455 4 21 4 z M 19 14C19.552 14 20 14.448 20 15L20 40C20 40.553 19.552 41 19 41C18.448 41 18 40.553 18 40L18 15C18 14.448 18.448 14 19 14 z M 25 14C25.552 14 26 14.448 26 15L26 40C26 40.553 25.552 41 25 41C24.448 41 24 40.553 24 40L24 15C24 14.448 24.448 14 25 14 z M 31 14C31.553 14 32 14.448 32 15L32 40C32 40.553 31.553 41 31 41C30.447 41 30 40.553 30 40L30 15C30 14.448 30.447 14 31 14 z" fill="#fc7e7e" />
</svg>