<svg width="30" height="30" viewBox="0 0 30 30" fill="none" xmlns="http://www.w3.org/2000/svg">
<path d="M11.3625 7.7063C5.3531 9.32817 0.967944 14.3532 0.749975 14.6063C0.557788 14.8313 0.557788 15.1688 0.749975 15.3938C1.01013 15.6961 7.19294 22.8 15 22.8C22.807 22.8 28.9898 15.6961 29.25 15.3938C29.4422 15.1688 29.4422 14.8313 29.25 14.6063C29.032 14.3532 24.6469 9.33052 18.6375 7.7063C20.4164 8.88755 21.6 10.9032 21.6 13.2C21.5976 16.8446 18.6445 19.8 15 19.8C11.3554 19.8 8.40232 16.8446 8.39998 13.2C8.39998 10.9032 9.58357 8.88755 11.3625 7.7063ZM15 10.2C13.3429 10.2 12 11.543 12 13.2C12 14.8571 13.3429 16.2 15 16.2C16.657 16.2 18 14.8571 18 13.2C18 11.543 16.657 10.2 15 10.2Z" fill="#333333"/>
</svg>
