<svg width="40" height="40" viewBox="0 0 40 40" fill="none" xmlns="http://www.w3.org/2000/svg">
<path d="M3.20001 2.3999V7.1999H36.8V2.3999H3.20001ZM4.80001 8.7999V31.9999H19.2V8.7999H4.80001ZM20.8 8.7999V31.9999H35.2V8.7999H20.8ZM16 16.7999C16.4416 16.7999 16.8 17.1583 16.8 17.5999V22.3999C16.8 22.8423 16.4416 23.1999 16 23.1999C15.5584 23.1999 15.2 22.8423 15.2 22.3999V17.5999C15.2 17.1583 15.5584 16.7999 16 16.7999ZM24 16.7999C24.4424 16.7999 24.8 17.1583 24.8 17.5999V22.3999C24.8 22.8423 24.4424 23.1999 24 23.1999C23.5576 23.1999 23.2 22.8423 23.2 22.3999V17.5999C23.2 17.1583 23.5576 16.7999 24 16.7999ZM4.80001 33.5999V38.3999H10.4V35.1999C10.4 34.0487 10.8488 33.5999 12 33.5999H4.80001ZM28 33.5999C29.1512 33.5999 29.6 34.0487 29.6 35.1999V38.3999H35.2V33.5999H28Z" fill="#333333"/>
</svg>
