<svg width="40" height="40" viewBox="0 0 40 40" fill="none" xmlns="http://www.w3.org/2000/svg">
<path d="M7.19999 2.3999C5.87679 2.3999 4.79999 3.4767 4.79999 4.7999V35.1999C4.79999 36.5231 5.87679 37.5999 7.19999 37.5999H32.8C34.1232 37.5999 35.2 36.5231 35.2 35.1999V4.7999C35.2 3.4767 34.1232 2.3999 32.8 2.3999H7.19999ZM24.8 6.3999C25.684 6.3999 26.4 7.1159 26.4 7.9999C26.4 8.8839 25.684 9.5999 24.8 9.5999C23.916 9.5999 23.2 8.8839 23.2 7.9999C23.2 7.1159 23.916 6.3999 24.8 6.3999ZM29.6 6.3999C30.484 6.3999 31.2 7.1159 31.2 7.9999C31.2 8.8839 30.484 9.5999 29.6 9.5999C28.716 9.5999 28 8.8839 28 7.9999C28 7.1159 28.716 6.3999 29.6 6.3999ZM20 12.7999C24.3125 12.7999 27.896 15.9065 28.6484 20.003C27.5293 19.4206 26.3703 19.2175 25.6172 19.2015C24.4751 19.1775 23.5898 19.6688 22.7562 20.064C21.9226 20.4592 21.124 20.7999 20 20.7999C18.876 20.7999 18.0773 20.4592 17.2437 20.064C16.4106 19.669 15.5256 19.178 14.3844 19.2015H14.3828C13.6287 19.2169 12.4695 19.4197 11.3516 20.0015C12.1043 15.9057 15.6866 12.7999 20 12.7999ZM14.4156 20.7999C14.4161 20.7999 14.4167 20.7999 14.4172 20.7999C15.0639 20.7863 15.685 21.0955 16.5578 21.5093C17.4306 21.9231 18.5384 22.3999 20 22.3999C21.4616 22.3999 22.5694 21.9231 23.4422 21.5093C24.315 21.0955 24.9361 20.7863 25.5828 20.7999C26.1644 20.8123 27.7317 21.1511 28.6953 21.9327C28.7221 21.9543 28.7503 21.9741 28.7797 21.9921C28.573 26.6688 24.7261 30.3999 20 30.3999C15.2729 30.3999 11.4277 26.6696 11.2203 21.9937C11.2497 21.9752 11.2779 21.9548 11.3047 21.9327C12.2684 21.151 13.8357 20.8117 14.4156 20.7999Z" fill="#333333"/>
</svg>
