<svg width="40" height="40" viewBox="0 0 40 40" fill="none" xmlns="http://www.w3.org/2000/svg">
<g clip-path="url(#clip0)">
<path d="M20.6157 0.427929C20.3125 0.0591797 19.6875 0.0591797 19.3813 0.427929C18.8313 1.09668 5.90942 16.8623 5.90942 25.9061C5.90942 33.6779 12.2282 39.9998 20 39.9998C27.7719 39.9998 34.0907 33.6779 34.0907 25.9092C34.0907 16.8623 21.1688 1.09668 20.6157 0.427929ZM20.1594 10.1936C20.0844 10.2904 12.5938 20.0279 12.5938 25.7529C12.5938 32.9717 18.9188 33.9623 19.1875 33.9998C19.625 34.0623 19.9282 34.4686 19.8657 34.9061C19.8094 35.3061 19.4688 35.5936 19.075 35.5936C19.0375 35.5936 19 35.5904 18.9594 35.5842C18.8813 35.5717 10.9938 34.3404 10.9938 25.7529C10.9938 19.4842 18.5719 9.63105 18.8938 9.21231C19.1657 8.8623 19.6688 8.7998 20.0157 9.07168C20.3657 9.34356 20.4313 9.84356 20.1594 10.1936Z" fill="#333333"/>
</g>
<defs>
<clipPath id="clip0">
<rect width="40" height="40" fill="white"/>
</clipPath>
</defs>
</svg>
